# xmcd
#
# Track frame offsets:
#	150
#	18845
#	36732
#	57469
#	71432
#	89736
#	105876
#	120881
#	135683
#	155847
#	171321
#
# Disc length: 2487 seconds
#
# Revision: 1
# Processed by: cddbd v1.5.1PL2 Copyright (c) Steve Scherf et al.
# Submitted via: audiograbber 1.83.01
#
DISCID=9509b50b
DTITLE=Bob Manor - Ghosts Of Yesterday
DYEAR=2005
DGENRE=Blues
TTITLE0=Wrecking Ball
TTITLE1=John Baker's Toil
TTITLE2=River's Run Dry
TTITLE3=The Sweetness
TTITLE4=Sun Beat Down
TTITLE5=Don't Walk On Me
TTITLE6=Anybody But You
TTITLE7=Why Shouldn't I?
TTITLE8=Stuck
TTITLE9=Bad Addiction
TTITLE10=Out Of Dodge
EXTD=
EXTT0=
EXTT1=
EXTT2=
EXTT3=
EXTT4=
EXTT5=
EXTT6=
EXTT7=
EXTT8=
EXTT9=
EXTT10=
PLAYORDER=
